<?xml version="1.0" encoding="utf-8"?>
<!-- Generator: Adobe Illustrator 25.4.1, SVG Export Plug-In . SVG Version: 6.00 Build 0)  -->
<svg version="1.1" id="Layer_1" xmlns="http://www.w3.org/2000/svg" xmlns:xlink="http://www.w3.org/1999/xlink" x="0px" y="0px"
	 viewBox="0 0 1920 1080" style="enable-background:new 0 0 1920 1080;" xml:space="preserve">
<style type="text/css">
	.st0{fill:#1FFC38;}
	.st1{font-family:'Montserrat-ExtraBold';}
	.st2{font-size:88.7188px;}
	.st3{font-family:'Montserrat-Bold';}
	.st4{font-size:116.6309px;}
	.st5{letter-spacing:2;}
</style>
<g>
	<path class="st0" d="M1550.99,522.56H750.96h-72.17h-0.64c-35.55,0-64.35,28.82-64.35,64.35v54.86c0,35.9,29.1,65,65,65h872.2
		c35.9,0,65.01-29.1,65.01-65v-54.21C1616,551.67,1586.89,522.56,1550.99,522.56z"/>
</g>
<g>
	<g>
		<g>
			<path class="st0" d="M521.05,566.91h12.86c-0.41-31.32-25.76-56.64-57.07-57.05v12.85C501.07,523.12,520.65,542.71,521.05,566.91
				z"/>
			<path class="st0" d="M561.27,566.91h12.87c-0.41-53.45-43.83-96.87-97.29-97.27v12.84C523.24,482.92,560.88,520.54,561.27,566.91
				z"/>
			<path class="st0" d="M476.85,430v12.84c68.24,0.4,123.66,55.84,124.08,124.07h12.86C613.38,491.57,552.19,430.4,476.85,430z"/>
			<path class="st0" d="M545.19,615.42c-0.88-1.12-2.5-1.34-3.64-0.45l-24.64,19c-1.12,0.87-1.33,2.5-0.46,3.65l0.44,0.55
				c-17.17-1.5-48.14-23.03-66.4-46.28c-17.89-23.58-30.87-58.96-27.99-75.96l0.45,0.57c0.87,1.13,2.51,1.36,3.63,0.49l24.62-19.03
				c1.14-0.87,1.35-2.5,0.47-3.62l-48.06-62.26c-0.88-1.16-2.5-1.35-3.65-0.5l-24.65,19.05c-1.12,0.86-1.32,2.47-0.46,3.59h0.03
				c-13.05,13.57-17.47,29.35-12.88,51.69c2.28,11.17,8.1,55.85,52.56,113.66c44.65,57.65,86.48,74.64,96.71,79.68
				c20.45,10.08,36.81,9.79,53.25,0.63h0.01c0.88,1.13,2.48,1.34,3.61,0.46l24.63-19.04c1.14-0.85,1.35-2.48,0.48-3.6L545.19,615.42
				z"/>
		</g>
		<g>
			<path class="st0" d="M521.05,566.91h12.86c-0.41-31.32-25.76-56.64-57.07-57.05v12.85C501.07,523.12,520.65,542.71,521.05,566.91
				z"/>
			<path class="st0" d="M561.27,566.91h12.87c-0.41-53.45-43.83-96.87-97.29-97.27v12.84C523.24,482.92,560.88,520.54,561.27,566.91
				z"/>
			<path class="st0" d="M476.85,430v12.84c68.24,0.4,123.66,55.84,124.08,124.07h12.86C613.38,491.57,552.19,430.4,476.85,430z"/>
			<path class="st0" d="M545.19,615.42c-0.88-1.12-2.5-1.34-3.64-0.45l-24.64,19c-1.12,0.87-1.33,2.5-0.46,3.65l0.44,0.55
				c-17.17-1.5-48.14-23.03-66.4-46.28c-17.89-23.58-30.87-58.96-27.99-75.96l0.45,0.57c0.87,1.13,2.51,1.36,3.63,0.49l24.62-19.03
				c1.14-0.87,1.35-2.5,0.47-3.62l-48.06-62.26c-0.88-1.16-2.5-1.35-3.65-0.5l-24.65,19.05c-1.12,0.86-1.32,2.47-0.46,3.59h0.03
				c-13.05,13.57-17.47,29.35-12.88,51.69c2.28,11.17,8.1,55.85,52.56,113.66c44.65,57.65,86.48,74.64,96.71,79.68
				c20.45,10.08,36.81,9.79,53.25,0.63h0.01c0.88,1.13,2.48,1.34,3.61,0.46l24.63-19.04c1.14-0.85,1.35-2.48,0.48-3.6L545.19,615.42
				z"/>
		</g>
	</g>
</g>
<text transform="matrix(1 0 0 1 662.0107 492.7354)" class="st0 st1 st2">Contáctanos ahora</text>
<text transform="matrix(1 0 0 1 688.3916 652.7393)" class="st3 st4 st5">800 288 0092</text>
</svg>
